<?xml version="1.0" encoding="UTF-8"?>
<svg xmlns="http://www.w3.org/2000/svg" xmlns:xlink="http://www.w3.org/1999/xlink" width="588.9pt" height="445.8pt" viewBox="0 0 588.9 445.8" version="1.1">
<g id="surface1">
<path style=" stroke:none;fill-rule:evenodd;fill:rgb(88.28125%,9.812927%,13.330078%);fill-opacity:1;" d="M 394.949219 386.628906 L 381.472656 386.585938 C 382.6875 373.042969 392.550781 346.175781 397.898438 332.464844 C 400.566406 325.628906 399.902344 319.402344 408.542969 319.242188 C 418.707031 319.054688 420.054688 330.945313 426.390625 348.726563 C 429.039063 356.15625 437.316406 378.851563 437.347656 386.246094 L 421.773438 386.707031 L 418.542969 375.320313 C 415.464844 375.492188 403.417969 375.582031 401.601563 376.078125 C 394.503906 378.023438 401.128906 382.4375 394.949219 386.628906 Z M 291.910156 364.136719 C 281.742188 320.660156 336.804688 305.089844 347.480469 346.039063 C 359.515625 392.214844 301.1875 403.808594 291.910156 364.136719 Z M 288.160156 368.382813 L 290.292969 384.765625 C 268.472656 396.402344 247.441406 386.578125 247.371094 361.679688 C 247.3125 340.863281 263.011719 320.359375 283.363281 322.519531 L 284.179688 339.816406 C 254.464844 339.636719 258.199219 369.234375 271.863281 372.363281 C 280.226563 374.277344 283.050781 369.265625 288.160156 368.382813 Z M 363.390625 371.894531 L 379.484375 372.078125 L 376.625 385.570313 L 347.992188 384.820313 L 355.785156 321.09375 L 368.199219 318.6875 Z M 239.265625 338.589844 C 232.15625 337.363281 223.371094 333.921875 218.828125 340.664063 C 224.621094 348.929688 248.03125 341.71875 244.566406 369.109375 C 242.289063 387.101563 223.632813 388.222656 206.753906 385.246094 L 207.902344 369.507813 C 215.371094 368.347656 226.441406 377.410156 234.070313 368.003906 C 232.855469 354.558594 203.8125 364.910156 206.414063 339.714844 C 207.898438 325.367188 225.886719 315.503906 241.820313 323.371094 Z M 198.34375 336.671875 C 177.78125 338.320313 179.199219 333.347656 178.558594 347.328125 L 193.351563 346.832031 L 192.316406 360.601563 C 189.414063 360.714844 181.527344 360.167969 179.5 361.390625 C 178.382813 362.0625 169.371094 380.117188 202.917969 368.398438 L 200.777344 384.976563 C 193.570313 386.28125 185.167969 386.507813 177.503906 386.03125 C 161.121094 385.011719 164.132813 370.878906 164.835938 349.3125 C 164.972656 345.160156 165.171875 341.058594 165.394531 336.914063 C 165.566406 333.761719 165.359375 327.800781 168.070313 325.773438 C 173.59375 323.003906 193.078125 321.929688 200.332031 322.789063 Z M 325.378906 315.886719 C 327.222656 298.414063 335.097656 283.203125 340.34375 268.777344 L 348.832031 269.523438 C 353.679688 277.339844 364.945313 304.027344 366.929688 314.234375 L 353.84375 315.785156 L 350.46875 308.050781 L 337.707031 308.558594 L 335.910156 315.941406 Z M 300.511719 270.636719 L 311.988281 269.570313 L 308.203125 306.269531 L 321.449219 306.921875 C 322.3125 310.363281 321.488281 311.933594 319.574219 316.074219 L 295.609375 315.152344 Z M 242.789063 314.472656 C 227.675781 316.589844 231.921875 308.527344 233.390625 297.738281 C 234.550781 289.214844 233.246094 278.683594 234.578125 270.640625 C 245.976563 268.761719 259.84375 269.074219 261.699219 280.210938 C 263.863281 293.203125 254.726563 296.628906 244.574219 298.972656 C 244.417969 304.277344 244.167969 310.308594 242.789063 314.472656 Z M 268.210938 272.003906 C 275.578125 270.28125 284.292969 269.199219 292.203125 270.0625 L 290.625 279.578125 C 280.191406 281.507813 276.6875 276.257813 276.648438 287.253906 L 287.15625 287.253906 L 285.863281 297.054688 L 277.988281 297.78125 L 276.78125 304.363281 C 282.890625 306.546875 287.085938 305.308594 293.554688 305.039063 L 292.183594 314.476563 C 279.980469 315.671875 267.484375 318.34375 266.492188 304.890625 C 265.910156 297.015625 266.53125 279.316406 268.210938 272.003906 Z M 355.941406 193.492188 C 398.269531 182.589844 408.746094 255.40625 371.320313 262.726563 C 349.007813 267.09375 335.511719 253.277344 332.621094 235.214844 C 329.125 213.339844 339.296875 197.78125 355.941406 193.492188 Z M 224.265625 193.105469 C 265.769531 184.488281 275.222656 255.867188 237.9375 262.839844 C 191.996094 271.425781 185.535156 201.148438 224.265625 193.105469 Z M 264.066406 194.574219 C 295.640625 187.753906 329.851563 192.476563 326.847656 229.363281 C 325.582031 244.921875 316.613281 254.140625 306.335938 259.464844 C 293.652344 266.03125 277.859375 263.871094 263.949219 260.742188 Z M 140.085938 194.605469 C 157.839844 189.960938 184.503906 191.675781 203.386719 194.273438 L 203.746094 206.359375 C 197.292969 208.367188 190.539063 208.660156 182.582031 208.527344 C 181.203125 218.179688 182.710938 258.144531 179.523438 262.265625 C 177.34375 263.886719 176.746094 263.644531 172.664063 263.664063 C 169.824219 263.675781 167.34375 263.238281 165.046875 262.828125 C 164.515625 253.621094 164.851563 243.714844 164.855469 234.421875 C 164.855469 229.886719 164.820313 225.34375 164.871094 220.816406 C 164.96875 212.011719 165.847656 211.023438 163.324219 208.726563 C 157.800781 204.738281 146.785156 208.613281 139.78125 206.714844 C 138.351563 201.402344 137.820313 198.890625 140.085938 194.605469 Z M 398.445313 246.199219 C 405.242188 247.726563 409.761719 250.378906 417.214844 250.394531 C 422.839844 250.402344 432.515625 248.769531 430.496094 242.367188 C 428.378906 235.652344 408.078125 238.066406 400.496094 228.859375 C 390.324219 216.503906 396.992188 185.136719 441.390625 194.914063 L 437.089844 212.679688 C 427.710938 210.941406 418.316406 207.347656 411.925781 214.652344 C 415.894531 221.171875 428.914063 219.945313 435.746094 224.488281 C 449.425781 233.589844 453.75 275.722656 396.554688 264.8125 Z M 501.058594 185.003906 C 503.859375 180.339844 504.863281 183.734375 506.363281 177.550781 C 434.097656 178.617188 361.761719 166.238281 288.703125 166.09375 C 223.859375 166.003906 199.8125 169.472656 136.832031 175.726563 C 121.839844 177.21875 106.8125 177.839844 91.214844 179.503906 L 90.835938 225.773438 C 90.875 249.328125 93.824219 250.15625 93.722656 259.101563 C 93.605469 269.089844 90.761719 283.527344 91.441406 291.105469 C 91.492188 291.636719 92.011719 295.140625 92.011719 295.210938 C 91.996094 297.84375 91.949219 296.703125 91.253906 298.671875 C 84.527344 317.839844 83.617188 398.359375 86.726563 417.878906 C 93.734375 420.058594 106.039063 421.332031 114.179688 420.09375 C 128.007813 417.996094 113.980469 415.652344 140.453125 416.484375 C 160.167969 417.101563 182.09375 416.078125 200.136719 414.285156 L 288.707031 409.027344 C 302.339844 409.042969 304.203125 409.429688 312.175781 416.320313 C 346.179688 415.664063 378.039063 416.738281 410.960938 418.121094 C 426.945313 418.792969 442.359375 419.914063 457.976563 421.753906 C 469.914063 423.152344 469.265625 421.570313 480.15625 421.292969 C 488.867188 421.078125 495.667969 423.070313 503.117188 422.757813 C 503.082031 415.441406 501.601563 406.234375 501.554688 397.492188 L 503.851563 321.425781 C 506.515625 281.691406 508.730469 262.773438 508.800781 222.066406 C 508.875 178.464844 505.535156 194.816406 501.058594 185.003906 Z M 501.058594 185.003906 "/>
<path style=" stroke:none;fill-rule:evenodd;fill:rgb(12.547302%,21.972656%,50.976563%);fill-opacity:1;" d="M 279.648438 422.3125 L 293.648438 422.675781 C 292.757813 425.796875 297.300781 422.613281 292.324219 424.46875 C 291.179688 424.898438 288.75 424.992188 287.511719 424.945313 C 283.328125 424.78125 282.058594 424.046875 279.648438 422.3125 Z M 191.320313 423.339844 C 206.800781 419.445313 238 421.453125 255.113281 422.503906 C 246.960938 424.425781 232.304688 424.394531 223.226563 424.632813 C 217.566406 424.777344 211.5 424.738281 205.910156 425.007813 C 199.035156 425.339844 195.125 428.171875 191.320313 423.339844 Z M 48.171875 265.246094 C 46.949219 248.128906 63.097656 234.253906 75.257813 230.265625 L 74.421875 256.046875 C 68.78125 257.285156 65.632813 257.273438 60.410156 259.398438 C 55.554688 261.371094 52.523438 264.59375 48.171875 265.246094 Z M 524.886719 223.671875 C 537.191406 227.433594 552.433594 239.828125 549.371094 257.203125 C 545.585938 259.886719 546.484375 259.867188 541.960938 261.851563 C 536.875 259.445313 534.117188 256.511719 526.203125 256.90625 Z M 531.238281 204.769531 L 541.875 183.808594 C 553.949219 192.949219 585.34375 243.320313 574.761719 268.363281 C 570.917969 277.464844 566.691406 280.039063 562.308594 286.898438 C 558.777344 292.425781 557.179688 298.097656 543.21875 298.878906 C 526.070313 299.828125 515.746094 288.597656 517.992188 277.660156 C 519.410156 270.757813 523.503906 272.339844 529.394531 272.496094 L 531.367188 266.382813 C 540.683594 267.128906 538.257813 269.621094 544.429688 273.449219 C 556.695313 268.570313 563.589844 252.605469 556.5625 235.835938 C 550.421875 221.171875 539.113281 214.460938 531.238281 204.769531 Z M 54.714844 279.304688 C 55.65625 271.300781 62.371094 264.871094 72.027344 267.023438 C 73.964844 273.820313 69.785156 275.671875 66.660156 280.128906 C 73.03125 284.320313 89.863281 284.925781 88.171875 295.816406 C 86.847656 304.324219 71.964844 309.21875 61.605469 308.296875 C 45.234375 306.847656 21.394531 294.203125 19.136719 272.714844 C 16.566406 248.226563 19.25 238.996094 35.539063 223.3125 C 41.554688 217.523438 36.289063 219.9375 40.34375 215.855469 L 59.726563 200.65625 C 63.359375 197.589844 77.554688 182.644531 79.1875 181.839844 C 79.636719 185.808594 79.628906 195.027344 78.796875 198.621094 C 77.375 204.769531 77.21875 199.878906 76.074219 206.046875 C 75.46875 209.296875 76.179688 212.613281 75.601563 215.6875 C 74.621094 220.886719 58.5625 228.074219 53.667969 231.640625 C 41.0625 240.820313 26.785156 273.089844 54.714844 279.304688 Z M 501.058594 185.003906 C 505.535156 194.816406 508.875 178.464844 508.800781 222.066406 C 508.730469 262.773438 506.515625 281.691406 503.851563 321.425781 L 501.554688 397.492188 C 501.601563 406.234375 503.082031 415.441406 503.117188 422.757813 C 495.667969 423.070313 488.867188 421.078125 480.15625 421.292969 C 469.265625 421.570313 469.914063 423.152344 457.976563 421.753906 C 442.359375 419.914063 426.945313 418.792969 410.960938 418.121094 C 378.039063 416.738281 346.179688 415.664063 312.175781 416.320313 C 304.203125 409.429688 302.339844 409.042969 288.707031 409.027344 L 200.136719 414.285156 C 182.09375 416.078125 160.167969 417.101563 140.453125 416.484375 C 113.980469 415.652344 128.007813 417.996094 114.179688 420.09375 C 106.039063 421.332031 93.734375 420.058594 86.726563 417.878906 C 83.617188 398.359375 84.527344 317.839844 91.253906 298.671875 C 91.949219 296.703125 91.996094 297.84375 92.011719 295.210938 C 92.011719 295.140625 91.492188 291.636719 91.441406 291.105469 C 90.761719 283.527344 93.605469 269.089844 93.722656 259.101563 C 93.824219 250.15625 90.875 249.328125 90.835938 225.773438 L 91.214844 179.503906 C 106.8125 177.839844 121.839844 177.21875 136.832031 175.726563 C 199.8125 169.472656 223.859375 166.003906 288.703125 166.09375 C 361.761719 166.238281 434.097656 178.617188 506.363281 177.550781 C 504.863281 183.734375 503.859375 180.339844 501.058594 185.003906 Z M 435.042969 162.351563 L 401.425781 161.046875 C 398.636719 141.363281 428.988281 144.015625 435.042969 162.351563 Z M 251.640625 157.355469 C 243.964844 157.589844 207.183594 158.492188 202.652344 156.589844 C 202.175781 148.289063 213.511719 152.425781 218.433594 152.851563 C 223.371094 153.277344 234.148438 151.558594 240.152344 151.300781 C 247.542969 150.980469 255.628906 151.183594 262.871094 150.605469 C 268.972656 150.117188 269.328125 148.285156 275.886719 154.738281 C 277.460938 156.289063 276.722656 155.414063 278.0625 157.070313 Z M 275.355469 144.664063 C 278.507813 139.519531 297.070313 131.949219 307.109375 154.058594 C 301.804688 155.21875 277.199219 162.980469 275.34375 144.96875 C 275.339844 144.9375 275.425781 144.738281 275.355469 144.664063 Z M 194.148438 153.441406 C 194.179688 153.480469 195.914063 155.59375 195.914063 155.59375 C 197.230469 157.726563 196.855469 156.09375 197.609375 159.070313 C 191.332031 161.195313 189.648438 164.238281 181.277344 164.246094 C 157.0625 164.257813 167.675781 152.878906 167.875 152.429688 C 169.195313 149.429688 166.722656 151.285156 170.0625 147.972656 C 172.566406 145.484375 179.148438 143.285156 183.695313 142.652344 C 188.894531 141.929688 192.402344 141.652344 195.445313 144.589844 C 195.554688 144.695313 195.746094 144.992188 195.859375 145.101563 L 196.941406 146.105469 C 198.28125 147.238281 201.394531 146.339844 200.167969 150.074219 C 199.328125 152.640625 197.097656 151.796875 194.148438 153.441406 Z M 182.804688 133.117188 L 186.910156 131.0625 C 191.851563 129.03125 190.757813 128.191406 193.058594 115.058594 C 193.488281 117.769531 194.816406 122.390625 195.457031 126.390625 L 196.699219 135.734375 C 196.582031 137.578125 196.382813 137.515625 196.046875 138.398438 C 188.277344 140.316406 185.054688 138.847656 182.804688 133.117188 Z M 276.558594 136.605469 L 287.859375 71.308594 C 289.859375 83.691406 289.09375 111.636719 295.777344 116.210938 C 298.085938 117.78125 296.5 116.640625 298.390625 117.382813 C 298.679688 117.492188 299.074219 117.605469 299.339844 117.699219 C 299.601563 117.796875 300.074219 117.925781 300.292969 118.003906 C 300.511719 118.074219 300.945313 118.152344 301.25 118.296875 C 300.964844 131.089844 290.234375 136.765625 276.558594 136.605469 Z M 100.894531 103.382813 L 103.042969 127.753906 C 90.246094 129.835938 79.804688 107.953125 100.894531 103.382813 Z M 503.351563 127.046875 C 495.386719 133.289063 486.359375 130.40625 486.121094 157.507813 C 471.945313 162.015625 461.347656 162.003906 446.925781 157.738281 C 429.433594 152.570313 439.394531 151.230469 420.054688 140.527344 C 418.363281 129.214844 417.179688 102.695313 422.125 93.453125 C 449.269531 91.382813 439.660156 86.839844 450.792969 79.066406 C 458.828125 81.488281 465.925781 77.777344 471.542969 74.796875 C 476.757813 82.269531 476.535156 87.671875 487 91.765625 C 492.054688 93.742188 497.589844 91.519531 505.355469 105.9375 C 500.816406 114.710938 500.382813 116.839844 503.351563 127.046875 Z M 400.917969 117.144531 C 400.953125 109.867188 401.664063 100.476563 404.832031 94.734375 C 410.320313 95.996094 412.320313 99.253906 410.304688 106.464844 C 408.648438 112.390625 405.820313 115.046875 400.917969 117.144531 Z M 112.96875 151.960938 C 109.589844 139.527344 106.867188 113.441406 106.191406 99.46875 C 105.90625 93.574219 105.074219 95.53125 107.78125 91.78125 C 119.128906 76.074219 145.238281 60.933594 172.410156 75.210938 C 176.945313 77.589844 181.605469 80.050781 182.847656 84.246094 C 184.1875 88.753906 183.589844 98.496094 183.171875 103.339844 C 182.210938 114.371094 180.070313 126.769531 175.757813 136.277344 C 170.464844 147.929688 163.699219 148.488281 150.003906 149.988281 C 141.570313 150.910156 119.859375 153.378906 112.96875 151.960938 Z M 214.0625 78.03125 C 233.011719 72.757813 239.132813 98.078125 223.988281 103.113281 C 205.433594 109.285156 199.863281 81.980469 214.0625 78.03125 Z M 242.082031 92.347656 C 241.136719 84.746094 246.535156 78.742188 253.140625 77.660156 C 261.074219 76.355469 268.449219 81.730469 269.011719 88.753906 C 270.367188 105.617188 244.316406 110.304688 242.082031 92.347656 Z M 226.988281 107.117188 C 227.1875 106.914063 227.515625 106.339844 227.605469 106.535156 L 232.519531 101.628906 C 235.546875 97.632813 233.90625 96.777344 238.605469 94.839844 C 243.925781 108.164063 258.980469 109.140625 265.332031 104.804688 C 275.039063 98.179688 276.128906 83.671875 266.589844 76.601563 L 280.878906 76.949219 C 280.800781 88.886719 275.488281 130.945313 269.042969 139.394531 C 261.453125 149.351563 270.421875 144.503906 230.683594 146.550781 C 197.378906 148.265625 203.875 154.050781 196.097656 112.09375 C 194.65625 104.316406 194.410156 104.726563 196.328125 97.714844 C 197 95.261719 197.179688 93.0625 198.144531 90.804688 C 199.75 87.046875 200.207031 87.378906 202.453125 85.820313 C 201.34375 104.726563 209.898438 108.53125 226.988281 107.117188 Z M 219.296875 62.144531 C 222.785156 62.921875 246.46875 71.394531 249.714844 74.523438 C 237.84375 79.078125 237.78125 90.992188 237.113281 89.394531 C 237.03125 89.203125 236.808594 90.054688 236.605469 90.351563 C 235.417969 77.222656 227.503906 72.046875 212.890625 74.113281 Z M 193.707031 83.824219 C 192.625 67.605469 194.921875 62.199219 199.761719 49.171875 C 205.085938 51.886719 212.757813 56.695313 216.457031 60.640625 C 212.214844 65.371094 209.664063 67.519531 205.808594 72.441406 C 201.902344 77.425781 200.015625 80.984375 193.707031 83.824219 Z M 346.78125 59.855469 C 353.953125 59.402344 353.9375 56.484375 358.28125 57.445313 L 366.847656 59.683594 C 367.082031 59.71875 367.488281 59.789063 367.699219 59.824219 L 369.394531 60.226563 C 371.355469 67.421875 367.230469 65.359375 364.929688 71.007813 C 361.042969 80.550781 371.769531 86.84375 375.296875 77.714844 C 376.648438 74.214844 374.9375 74.769531 374.351563 70.347656 C 379.765625 66.105469 378.660156 68.09375 378.660156 58.710938 C 391.964844 67.519531 390.644531 78.953125 391.339844 84.96875 C 391.832031 89.175781 392.425781 89.699219 394.539063 90.644531 L 395.882813 90.992188 C 395.988281 91.019531 396.351563 91.019531 396.5625 91.113281 C 396.460938 101.910156 394.484375 114.894531 392.226563 125.441406 C 389.257813 139.285156 381.070313 131.714844 380.277344 152.660156 C 361.449219 155.527344 328.683594 159.433594 317.226563 146.59375 C 307.464844 135.648438 304.078125 101.484375 306.863281 83.214844 C 320.957031 77.738281 315.792969 81.910156 318.59375 71.597656 C 326.261719 69.300781 325.492188 70.539063 328.839844 63.347656 C 331.664063 57.285156 331.210938 52.765625 338.671875 55.964844 C 339.414063 58.238281 337.835938 67.921875 344.246094 71.617188 C 348.789063 74.238281 354.425781 70.847656 346.78125 59.855469 Z M 298.585938 48.257813 C 302.515625 44.839844 301.21875 44.300781 304.757813 44.296875 C 308.03125 44.289063 308.660156 45.65625 309.832031 47.878906 C 302.683594 53.492188 308.753906 44.945313 294.070313 58.726563 L 289.519531 46.28125 Z M 206.140625 41.738281 C 217.320313 30.222656 235.480469 27.578125 251.023438 29.777344 C 267.476563 32.101563 279.59375 41.496094 283.277344 55.761719 C 284.265625 59.589844 284.929688 66.136719 283.75 69.964844 C 279.925781 82.347656 231.128906 64.789063 222.710938 58.183594 C 215.304688 52.371094 214.160156 57.023438 209.292969 49.867188 C 214.421875 51.257813 228.902344 58.964844 240.628906 62.589844 C 248.777344 65.113281 269.253906 70.398438 277.191406 66.40625 C 275.789063 65.503906 245.371094 62.296875 236.894531 58.910156 C 230.074219 56.191406 210.171875 45.890625 206.140625 41.738281 Z M 381.054688 8.339844 L 379.140625 8.339844 C 375.507813 11.890625 370.644531 14.933594 364.121094 16.003906 C 352.800781 17.855469 356.339844 22.113281 350.394531 25.679688 C 347.867188 27.191406 344.703125 28.046875 342.90625 24.839844 C 340.402344 20.363281 345.519531 21.640625 339.582031 16.8125 C 335.292969 13.320313 327.722656 11.0625 322.269531 13.433594 C 319.992188 23.945313 326.242188 23.96875 333.234375 26.421875 L 333.242188 33.839844 C 326.199219 31.671875 320.488281 28.894531 316.234375 24.070313 C 315.121094 22.808594 307.015625 15.28125 304.351563 14.722656 C 294.175781 12.585938 298.03125 24.246094 302.402344 26.738281 C 308.34375 30.121094 311.722656 26.296875 310.800781 36.53125 C 300.945313 40.589844 296.96875 28.359375 287.5 44.613281 C 282.097656 29.65625 264.773438 19.761719 246.695313 19.738281 C 222.382813 19.714844 212.777344 26.222656 194.8125 33.203125 C 165.378906 0.828125 101.609375 -0.03125 72.488281 41.726563 C 37.980469 91.210938 64.542969 154.605469 106.804688 154.398438 C 106.730469 159.175781 105.375 160.46875 103.6875 163.984375 C 92.515625 164.214844 76.203125 166.671875 70.035156 172.640625 C 68.316406 175.371094 75.84375 176.148438 58.292969 190.53125 C 51.921875 195.753906 45.308594 201.070313 38.023438 206.097656 C 21.730469 217.34375 25.363281 210.433594 20.152344 220.609375 C 15.851563 229.007813 13.21875 227.964844 8.132813 244.179688 C 0.015625 270.078125 8.875 282.761719 20.25 297.796875 C 29.925781 310.578125 45.335938 321.148438 70.320313 319.695313 C 69.335938 343.753906 60.792969 397.019531 61.683594 412.253906 C 66.242188 403.714844 65.800781 378.175781 68.320313 366.121094 C 70.980469 389.554688 66.199219 408.3125 66.960938 432.089844 L 61.855469 434.238281 L 64.988281 442.765625 C 84.503906 445.777344 103.726563 440.976563 122.34375 438.855469 C 198.109375 430.230469 257.855469 431.292969 333.179688 431.15625 C 337.328125 431.148438 344.394531 431.675781 348.066406 431.394531 C 356.8125 430.722656 349.613281 428.359375 361.511719 428.308594 C 381.800781 428.21875 402.707031 428.96875 422.984375 430.242188 C 442.136719 431.445313 461.125 433.222656 480.09375 435.882813 C 492.304688 437.59375 525.023438 445.210938 534.097656 437.027344 C 531.652344 433.621094 529.75 434.339844 526.363281 431.699219 C 525.300781 411.746094 516.460938 355.730469 516.855469 351.238281 C 516.503906 353.746094 523.632813 388.203125 525.308594 394.503906 C 527.570313 383.300781 524.746094 329.683594 527.503906 303.972656 C 551.265625 304.871094 560.398438 305.878906 573.273438 290.4375 C 579.75 282.671875 578.976563 278.671875 582.492188 268.714844 C 588.914063 250.496094 572.503906 198.796875 551.765625 177.6875 C 542.941406 168.710938 536.019531 164.304688 534.554688 162.765625 C 539.035156 148.371094 538.027344 142.839844 529.734375 133.117188 C 529.914063 132.898438 530.246094 132.3125 530.332031 132.507813 C 530.332031 132.515625 536.867188 127.320313 537.542969 119.527344 C 538.234375 111.507813 533.863281 106.699219 531.148438 103.46875 C 535.175781 98.515625 540.996094 95.121094 535.9375 86.066406 C 533.632813 81.9375 527.253906 77.847656 521.160156 76.074219 C 523.96875 58.113281 515.332031 48.964844 499.632813 45.871094 C 490.003906 43.976563 491.0625 30.867188 473.523438 36.3125 C 459.527344 40.664063 453.347656 23.96875 434.480469 48.003906 C 416.46875 47.703125 409.335938 50.800781 404.121094 66.035156 L 398.125 51.894531 C 399.9375 50.179688 398.050781 51.128906 400.679688 50.199219 C 403.367188 49.253906 419.40625 49.671875 421.046875 38.839844 C 407.484375 34.039063 410.382813 42.253906 401.691406 41.144531 C 394.234375 40.195313 399.195313 38.722656 391.078125 41.484375 C 386.84375 42.921875 386.800781 43.035156 382.277344 40.464844 C 385.886719 30.628906 390.40625 39.261719 399.789063 32.980469 C 405.5 29.15625 411.945313 27.308594 410.863281 19.671875 C 395.632813 16.222656 394.386719 25.644531 388.230469 27.386719 C 383.117188 28.835938 380.226563 26.371094 374.546875 28.578125 C 366.496094 31.714844 373.476563 31.84375 360.996094 32.335938 C 364.859375 22.378906 386.554688 24.359375 381.054688 8.339844 Z M 381.054688 8.339844 "/>
<path style=" stroke:none;fill-rule:evenodd;fill:rgb(99.609375%,99.609375%,99.609375%);fill-opacity:1;" d="M 318.105469 117.226563 C 323.921875 121.054688 324.320313 142.847656 352.8125 139.199219 C 367.699219 137.296875 376.667969 129.371094 378.941406 115.753906 C 379.96875 109.589844 377.878906 112.644531 381.359375 111.109375 C 381.945313 111.382813 386.070313 109.886719 382.136719 121.527344 C 380.730469 125.699219 378.347656 128.859375 376.007813 131.445313 C 371.378906 136.554688 364.59375 141.191406 355.335938 142.960938 C 334.253906 146.980469 319.15625 135.429688 318.105469 117.226563 Z M 322.496094 113.351563 C 327.300781 111.464844 342.8125 114.179688 350.488281 113.296875 C 355.085938 112.757813 359.394531 111.710938 364.011719 110.898438 C 365.632813 110.613281 368.429688 110.027344 370.3125 109.960938 C 376 109.753906 375.484375 110.914063 376.84375 112.632813 C 370.964844 113.9375 357.03125 115.933594 350.324219 116.675781 C 343.902344 117.382813 326.660156 119.761719 322.496094 113.351563 Z M 336.46875 101.804688 C 343.164063 103.617188 344.496094 106.242188 352.945313 105.914063 C 361.8125 105.570313 362.109375 100.347656 366.988281 102.234375 C 361.710938 110.160156 341.375 111.53125 336.46875 101.804688 Z M 375.121094 95.753906 C 378.867188 94.050781 377.742188 94.0625 381.78125 95.632813 C 382.21875 100.921875 379.8125 101.28125 374.425781 100.515625 Z M 322.753906 95.515625 C 327.113281 93.515625 324.429688 93.988281 329.40625 94.984375 C 329.464844 98.757813 329.359375 100.421875 325.542969 100.480469 C 321.273438 100.546875 321.933594 98.339844 322.753906 95.515625 Z M 346.78125 59.855469 C 354.425781 70.847656 348.789063 74.238281 344.246094 71.617188 C 337.835938 67.921875 339.414063 58.238281 338.671875 55.964844 C 331.210938 52.765625 331.664063 57.285156 328.839844 63.347656 C 325.492188 70.539063 326.261719 69.300781 318.59375 71.597656 C 315.792969 81.910156 320.957031 77.738281 306.863281 83.214844 C 304.078125 101.484375 307.464844 135.648438 317.226563 146.59375 C 328.683594 159.433594 361.449219 155.527344 380.277344 152.660156 C 381.070313 131.714844 389.257813 139.285156 392.226563 125.441406 C 394.484375 114.894531 396.460938 101.910156 396.5625 91.113281 C 396.351563 91.019531 395.988281 91.019531 395.882813 90.992188 L 394.539063 90.644531 C 392.425781 89.699219 391.832031 89.175781 391.339844 84.96875 C 390.644531 78.953125 391.964844 67.519531 378.660156 58.710938 C 378.660156 68.09375 379.765625 66.105469 374.351563 70.347656 C 374.9375 74.769531 376.648438 74.214844 375.296875 77.714844 C 371.769531 86.84375 361.042969 80.550781 364.929688 71.007813 C 367.230469 65.359375 371.355469 67.421875 369.394531 60.226563 L 367.699219 59.824219 C 367.488281 59.789063 367.082031 59.71875 366.847656 59.683594 L 358.28125 57.445313 C 353.9375 56.484375 353.953125 59.402344 346.78125 59.855469 Z M 346.78125 59.855469 "/>
<path style=" stroke:none;fill-rule:evenodd;fill:rgb(99.609375%,99.609375%,99.609375%);fill-opacity:1;" d="M 115.160156 110.878906 C 116.921875 107.3125 118.410156 105.699219 121.890625 107.101563 C 125.882813 110.636719 119.984375 114.953125 115.160156 110.878906 Z M 122.820313 124.78125 C 126.398438 117.929688 139.6875 114.785156 147.574219 111.820313 C 155.53125 108.828125 167.394531 104.003906 176.0625 103.6875 C 175.84375 137.988281 133.625 156.984375 119.789063 126.046875 C 130.964844 127.714844 124.789063 131.808594 132.394531 136.269531 C 137.976563 139.546875 146.316406 138.300781 152.179688 136.226563 C 163.664063 132.152344 170.003906 122.007813 171.539063 108.269531 C 152.023438 110.972656 139.902344 121.523438 122.820313 124.78125 Z M 128.449219 108.453125 C 145.726563 107.976563 150.128906 107.335938 158.78125 97.742188 L 159.410156 104.054688 C 153.800781 106.617188 136.402344 116.882813 128.449219 108.453125 Z M 166.351563 98.527344 C 166.972656 92.765625 172.792969 93.097656 171.839844 98.714844 C 170.570313 99.507813 171.515625 99.769531 168.984375 99.878906 C 165.246094 100.046875 167.265625 99.203125 166.351563 98.527344 Z M 112.96875 151.960938 C 119.859375 153.378906 141.570313 150.910156 150.003906 149.988281 C 163.699219 148.488281 170.464844 147.929688 175.757813 136.277344 C 180.070313 126.769531 182.210938 114.371094 183.171875 103.339844 C 183.589844 98.496094 184.1875 88.753906 182.847656 84.246094 C 181.605469 80.050781 176.945313 77.589844 172.410156 75.210938 C 145.238281 60.933594 119.128906 76.074219 107.78125 91.78125 C 105.074219 95.53125 105.90625 93.574219 106.191406 99.46875 C 106.867188 113.441406 109.589844 139.527344 112.96875 151.960938 Z M 112.96875 151.960938 "/>
<path style=" stroke:none;fill-rule:evenodd;fill:rgb(99.609375%,99.609375%,99.609375%);fill-opacity:1;" d="M 432.113281 119.308594 L 491.398438 122.515625 C 487.355469 126.882813 486.875 136.421875 482.292969 141.398438 C 470.777344 153.902344 432.492188 155.722656 432.113281 119.308594 Z M 486.414063 115.992188 C 486.628906 98.710938 502.703125 116.324219 486.414063 115.992188 Z M 432.859375 111.089844 C 431.554688 106.1875 433.582031 102.988281 438.375 104.402344 C 439.996094 108.058594 439.554688 107.378906 438.671875 111.476563 C 434.597656 112.269531 436.300781 112.476563 432.859375 111.089844 Z M 450.765625 112.304688 C 451.492188 107.773438 451.617188 107.515625 455.414063 105.902344 C 466.96875 100.992188 471.664063 106.265625 473.785156 116.824219 C 468.441406 115.671875 470.675781 113.660156 466.601563 108.660156 C 457.167969 106.777344 457.28125 110.378906 450.765625 112.304688 Z M 503.351563 127.046875 C 500.382813 116.839844 500.816406 114.710938 505.355469 105.9375 C 497.589844 91.519531 492.054688 93.742188 487 91.765625 C 476.535156 87.671875 476.757813 82.269531 471.542969 74.796875 C 465.925781 77.777344 458.828125 81.488281 450.792969 79.066406 C 439.660156 86.839844 449.269531 91.382813 422.125 93.453125 C 417.179688 102.695313 418.363281 129.214844 420.054688 140.527344 C 439.394531 151.230469 429.433594 152.570313 446.925781 157.738281 C 461.347656 162.003906 471.945313 162.015625 486.121094 157.507813 C 486.359375 130.40625 495.386719 133.289063 503.351563 127.046875 Z M 503.351563 127.046875 "/>
<path style=" stroke:none;fill-rule:evenodd;fill:rgb(99.609375%,99.609375%,99.609375%);fill-opacity:1;" d="M 54.714844 279.304688 C 26.785156 273.089844 41.0625 240.820313 53.667969 231.640625 C 58.5625 228.074219 74.621094 220.886719 75.601563 215.6875 C 76.179688 212.613281 75.46875 209.296875 76.074219 206.046875 C 77.21875 199.878906 77.375 204.769531 78.796875 198.621094 C 79.628906 195.027344 79.636719 185.808594 79.1875 181.839844 C 77.554688 182.644531 63.359375 197.589844 59.726563 200.65625 L 40.34375 215.855469 C 36.289063 219.9375 41.554688 217.523438 35.539063 223.3125 C 19.25 238.996094 16.566406 248.226563 19.136719 272.714844 C 21.394531 294.203125 45.234375 306.847656 61.605469 308.296875 C 71.964844 309.21875 86.847656 304.324219 88.171875 295.816406 C 89.863281 284.925781 73.03125 284.320313 66.660156 280.128906 C 69.785156 275.671875 73.964844 273.820313 72.027344 267.023438 C 62.371094 264.871094 55.65625 271.300781 54.714844 279.304688 Z M 54.714844 279.304688 "/>
<path style=" stroke:none;fill-rule:evenodd;fill:rgb(99.609375%,99.609375%,99.609375%);fill-opacity:1;" d="M 284.832031 244.304688 C 283.808594 235.011719 283.78125 219.21875 286.394531 211.265625 C 298.644531 210.175781 305.882813 215.816406 305.792969 228.183594 C 305.707031 240.796875 297.71875 246.253906 284.832031 244.304688 Z M 264.066406 194.574219 L 263.949219 260.742188 C 277.859375 263.871094 293.652344 266.03125 306.335938 259.464844 C 316.613281 254.140625 325.582031 244.921875 326.847656 229.363281 C 329.851563 192.476563 295.640625 187.753906 264.066406 194.574219 Z M 264.066406 194.574219 "/>
<path style=" stroke:none;fill-rule:evenodd;fill:rgb(99.609375%,99.609375%,99.609375%);fill-opacity:1;" d="M 209.652344 115.820313 C 213.804688 113.921875 224.140625 114.816406 230.640625 114.8125 C 238.414063 114.808594 258.421875 108.664063 268.125 109.21875 C 272.367188 143.613281 215.625 150.285156 209.035156 123.664063 C 206.824219 114.730469 209.105469 119.164063 210.21875 117.710938 C 215.660156 129.910156 217.800781 136.28125 235.582031 136.414063 C 251.683594 136.539063 263.902344 127.117188 264.476563 111.710938 C 256.621094 114.421875 217.261719 124.398438 209.652344 115.820313 Z M 226.988281 107.117188 C 242.460938 113.65625 237.484375 108.941406 246.023438 105.96875 C 243.746094 114.378906 230.894531 114.953125 226.988281 107.117188 C 209.898438 108.53125 201.34375 104.726563 202.453125 85.820313 C 200.207031 87.378906 199.75 87.046875 198.144531 90.804688 C 197.179688 93.0625 197 95.261719 196.328125 97.714844 C 194.410156 104.726563 194.65625 104.316406 196.097656 112.09375 C 203.875 154.050781 197.378906 148.265625 230.683594 146.550781 C 270.421875 144.503906 261.453125 149.351563 269.042969 139.394531 C 275.488281 130.945313 280.800781 88.886719 280.878906 76.949219 L 266.589844 76.601563 C 276.128906 83.671875 275.039063 98.179688 265.332031 104.804688 C 258.980469 109.140625 243.925781 108.164063 238.605469 94.839844 C 233.90625 96.777344 235.546875 97.632813 232.519531 101.628906 L 227.605469 106.535156 C 227.515625 106.339844 227.1875 106.914063 226.988281 107.117188 Z M 226.988281 107.117188 "/>
<path style=" stroke:none;fill-rule:evenodd;fill:rgb(99.609375%,99.609375%,99.609375%);fill-opacity:1;" d="M 531.238281 204.769531 C 539.113281 214.460938 550.421875 221.171875 556.5625 235.835938 C 563.589844 252.605469 556.695313 268.570313 544.429688 273.449219 C 538.257813 269.621094 540.683594 267.128906 531.367188 266.382813 L 529.394531 272.496094 C 523.503906 272.339844 519.410156 270.757813 517.992188 277.660156 C 515.746094 288.597656 526.070313 299.828125 543.21875 298.878906 C 557.179688 298.097656 558.777344 292.425781 562.308594 286.898438 C 566.691406 280.039063 570.917969 277.464844 574.761719 268.363281 C 585.34375 243.320313 553.949219 192.949219 541.875 183.808594 Z M 531.238281 204.769531 "/>
<path style=" stroke:none;fill-rule:evenodd;fill:rgb(99.609375%,99.609375%,99.609375%);fill-opacity:1;" d="M 358.085938 209.496094 C 378.621094 198.953125 385.316406 241.789063 368.128906 247.113281 C 350.039063 252.714844 339.519531 219.03125 358.085938 209.496094 Z M 355.941406 193.492188 C 339.296875 197.78125 329.125 213.339844 332.621094 235.214844 C 335.511719 253.277344 349.007813 267.09375 371.320313 262.726563 C 408.746094 255.40625 398.269531 182.589844 355.941406 193.492188 Z M 355.941406 193.492188 "/>
<path style=" stroke:none;fill-rule:evenodd;fill:rgb(99.609375%,99.609375%,99.609375%);fill-opacity:1;" d="M 224.871094 209.714844 C 245.746094 199.058594 251.695313 240.976563 235.757813 246.945313 C 217.6875 253.710938 206.101563 219.289063 224.871094 209.714844 Z M 224.265625 193.105469 C 185.535156 201.148438 191.996094 271.425781 237.9375 262.839844 C 275.222656 255.867188 265.769531 184.488281 224.265625 193.105469 Z M 224.265625 193.105469 "/>
<path style=" stroke:none;fill-rule:evenodd;fill:rgb(99.609375%,99.609375%,99.609375%);fill-opacity:1;" d="M 398.445313 246.199219 L 396.554688 264.8125 C 453.75 275.722656 449.425781 233.589844 435.746094 224.488281 C 428.914063 219.945313 415.894531 221.171875 411.925781 214.652344 C 418.316406 207.347656 427.710938 210.941406 437.089844 212.679688 L 441.390625 194.914063 C 396.992188 185.136719 390.324219 216.503906 400.496094 228.859375 C 408.078125 238.066406 428.378906 235.652344 430.496094 242.367188 C 432.515625 248.769531 422.839844 250.402344 417.214844 250.394531 C 409.761719 250.378906 405.242188 247.726563 398.445313 246.199219 Z M 398.445313 246.199219 "/>
<path style=" stroke:none;fill-rule:evenodd;fill:rgb(99.609375%,99.609375%,99.609375%);fill-opacity:1;" d="M 306.597656 357.964844 C 302.648438 334.355469 330.128906 327.628906 333.234375 351.785156 C 336.59375 377.894531 310.359375 380.4375 306.597656 357.964844 Z M 291.910156 364.136719 C 301.1875 403.808594 359.515625 392.214844 347.480469 346.039063 C 336.804688 305.089844 281.742188 320.660156 291.910156 364.136719 Z M 291.910156 364.136719 "/>
<path style=" stroke:none;fill-rule:evenodd;fill:rgb(99.609375%,99.609375%,99.609375%);fill-opacity:1;" d="M 206.140625 41.738281 C 210.171875 45.890625 230.074219 56.191406 236.894531 58.910156 C 245.371094 62.296875 275.789063 65.503906 277.191406 66.40625 C 269.253906 70.398438 248.777344 65.113281 240.628906 62.589844 C 228.902344 58.964844 214.421875 51.257813 209.292969 49.867188 C 214.160156 57.023438 215.304688 52.371094 222.710938 58.183594 C 231.128906 64.789063 279.925781 82.347656 283.75 69.964844 C 284.929688 66.136719 284.265625 59.589844 283.277344 55.761719 C 279.59375 41.496094 267.476563 32.101563 251.023438 29.777344 C 235.480469 27.578125 217.320313 30.222656 206.140625 41.738281 Z M 206.140625 41.738281 "/>
<path style=" stroke:none;fill-rule:evenodd;fill:rgb(99.609375%,99.609375%,99.609375%);fill-opacity:1;" d="M 404.191406 361.671875 C 404.761719 356.003906 405.6875 348.5625 408.949219 344.699219 L 413.738281 361.671875 Z M 394.949219 386.628906 C 401.128906 382.4375 394.503906 378.023438 401.601563 376.078125 C 403.417969 375.582031 415.464844 375.492188 418.542969 375.320313 L 421.773438 386.707031 L 437.347656 386.246094 C 437.316406 378.851563 429.039063 356.15625 426.390625 348.726563 C 420.054688 330.945313 418.707031 319.054688 408.542969 319.242188 C 399.902344 319.402344 400.566406 325.628906 397.898438 332.464844 C 392.550781 346.175781 382.6875 373.042969 381.472656 386.585938 Z M 394.949219 386.628906 "/>
<path style=" stroke:none;fill-rule:evenodd;fill:rgb(99.609375%,99.609375%,99.609375%);fill-opacity:1;" d="M 140.085938 194.605469 C 137.820313 198.890625 138.351563 201.402344 139.78125 206.714844 C 146.785156 208.613281 157.800781 204.738281 163.324219 208.726563 C 165.847656 211.023438 164.96875 212.011719 164.871094 220.816406 C 164.820313 225.34375 164.855469 229.886719 164.855469 234.421875 C 164.851563 243.714844 164.515625 253.621094 165.046875 262.828125 C 167.34375 263.238281 169.824219 263.675781 172.664063 263.664063 C 176.746094 263.644531 177.34375 263.886719 179.523438 262.265625 C 182.710938 258.144531 181.203125 218.179688 182.582031 208.527344 C 190.539063 208.660156 197.292969 208.367188 203.746094 206.359375 L 203.386719 194.273438 C 184.503906 191.675781 157.839844 189.960938 140.085938 194.605469 Z M 140.085938 194.605469 "/>
<path style=" stroke:none;fill-rule:evenodd;fill:rgb(99.609375%,99.609375%,99.609375%);fill-opacity:1;" d="M 200.332031 322.789063 C 193.078125 321.929688 173.59375 323.003906 168.070313 325.773438 C 165.359375 327.800781 165.566406 333.761719 165.394531 336.914063 C 165.171875 341.058594 164.972656 345.160156 164.835938 349.3125 C 164.132813 370.878906 161.121094 385.011719 177.503906 386.03125 C 185.167969 386.507813 193.570313 386.28125 200.777344 384.976563 L 202.917969 368.398438 C 169.371094 380.117188 178.382813 362.0625 179.5 361.390625 C 181.527344 360.167969 189.414063 360.714844 192.316406 360.601563 L 193.351563 346.832031 L 178.558594 347.328125 C 179.199219 333.347656 177.78125 338.320313 198.34375 336.671875 Z M 200.332031 322.789063 "/>
<path style=" stroke:none;fill-rule:evenodd;fill:rgb(99.609375%,99.609375%,99.609375%);fill-opacity:1;" d="M 241.820313 323.371094 C 225.886719 315.503906 207.898438 325.367188 206.414063 339.714844 C 203.8125 364.910156 232.855469 354.558594 234.070313 368.003906 C 226.441406 377.410156 215.371094 368.347656 207.902344 369.507813 L 206.753906 385.246094 C 223.632813 388.222656 242.289063 387.101563 244.566406 369.109375 C 248.03125 341.71875 224.621094 348.929688 218.828125 340.664063 C 223.371094 333.921875 232.15625 337.363281 239.265625 338.589844 Z M 241.820313 323.371094 "/>
<path style=" stroke:none;fill-rule:evenodd;fill:rgb(99.609375%,99.609375%,99.609375%);fill-opacity:1;" d="M 288.160156 368.382813 C 283.050781 369.265625 280.226563 374.277344 271.863281 372.363281 C 258.199219 369.234375 254.464844 339.636719 284.179688 339.816406 L 283.363281 322.519531 C 263.011719 320.359375 247.3125 340.863281 247.371094 361.679688 C 247.441406 386.578125 268.472656 396.402344 290.292969 384.765625 Z M 288.160156 368.382813 "/>
<path style=" stroke:none;fill-rule:evenodd;fill:rgb(99.609375%,99.609375%,99.609375%);fill-opacity:1;" d="M 343.925781 287.765625 C 344.710938 288.316406 345.066406 288.238281 345.796875 289.785156 C 346.40625 291.074219 346.320313 290.992188 346.742188 292.503906 C 347.261719 294.363281 347.472656 296.074219 347.621094 298.308594 L 341.320313 298.144531 Z M 325.378906 315.886719 L 335.910156 315.941406 L 337.707031 308.558594 L 350.46875 308.050781 L 353.84375 315.785156 L 366.929688 314.234375 C 364.945313 304.027344 353.679688 277.339844 348.832031 269.523438 L 340.34375 268.777344 C 335.097656 283.203125 327.222656 298.414063 325.378906 315.886719 Z M 325.378906 315.886719 "/>
<path style=" stroke:none;fill-rule:evenodd;fill:rgb(99.609375%,99.609375%,99.609375%);fill-opacity:1;" d="M 368.199219 318.6875 L 355.785156 321.09375 L 347.992188 384.820313 L 376.625 385.570313 L 379.484375 372.078125 L 363.390625 371.894531 Z M 368.199219 318.6875 "/>
<path style=" stroke:none;fill-rule:evenodd;fill:rgb(88.28125%,9.812927%,13.330078%);fill-opacity:1;" d="M 358.085938 209.496094 C 339.519531 219.03125 350.039063 252.714844 368.128906 247.113281 C 385.316406 241.789063 378.621094 198.953125 358.085938 209.496094 Z M 358.085938 209.496094 "/>
<path style=" stroke:none;fill-rule:evenodd;fill:rgb(88.28125%,9.812927%,13.330078%);fill-opacity:1;" d="M 224.871094 209.714844 C 206.101563 219.289063 217.6875 253.710938 235.757813 246.945313 C 251.695313 240.976563 245.746094 199.058594 224.871094 209.714844 Z M 224.871094 209.714844 "/>
<path style=" stroke:none;fill-rule:evenodd;fill:rgb(99.609375%,99.609375%,99.609375%);fill-opacity:1;" d="M 485.957031 123.984375 L 435.546875 122.136719 C 441.835938 151.800781 479.664063 153.878906 485.957031 123.984375 Z M 485.957031 123.984375 "/>
<path style=" stroke:none;fill-rule:evenodd;fill:rgb(99.609375%,99.609375%,99.609375%);fill-opacity:1;" d="M 268.210938 272.003906 C 266.53125 279.316406 265.910156 297.015625 266.492188 304.890625 C 267.484375 318.34375 279.980469 315.671875 292.183594 314.476563 L 293.554688 305.039063 C 287.085938 305.308594 282.890625 306.546875 276.78125 304.363281 L 277.988281 297.78125 L 285.863281 297.054688 L 287.15625 287.253906 L 276.648438 287.253906 C 276.6875 276.257813 280.191406 281.507813 290.625 279.578125 L 292.203125 270.066406 C 284.292969 269.199219 275.578125 270.28125 268.210938 272.003906 Z M 268.210938 272.003906 "/>
<path style=" stroke:none;fill-rule:evenodd;fill:rgb(99.609375%,99.609375%,99.609375%);fill-opacity:1;" d="M 243.734375 278.394531 C 254.78125 275.058594 255.84375 291.628906 243.292969 290.503906 Z M 242.789063 314.472656 C 244.167969 310.308594 244.417969 304.277344 244.574219 298.972656 C 254.726563 296.628906 263.863281 293.203125 261.699219 280.210938 C 259.84375 269.074219 245.976563 268.761719 234.578125 270.640625 C 233.246094 278.683594 234.550781 289.214844 233.390625 297.738281 C 231.921875 308.527344 227.675781 316.589844 242.789063 314.472656 Z M 242.789063 314.472656 "/>
<path style=" stroke:none;fill-rule:evenodd;fill:rgb(88.28125%,9.812927%,13.330078%);fill-opacity:1;" d="M 306.597656 357.964844 C 310.359375 380.4375 336.59375 377.894531 333.234375 351.785156 C 330.128906 327.628906 302.648438 334.355469 306.597656 357.964844 Z M 306.597656 357.964844 "/>
<path style=" stroke:none;fill-rule:evenodd;fill:rgb(99.609375%,99.609375%,99.609375%);fill-opacity:1;" d="M 276.558594 136.605469 C 290.234375 136.765625 300.964844 131.089844 301.25 118.296875 C 300.945313 118.152344 300.511719 118.074219 300.292969 118.003906 C 300.074219 117.925781 299.601563 117.796875 299.339844 117.699219 C 299.074219 117.605469 298.679688 117.492188 298.390625 117.382813 C 296.5 116.640625 298.085938 117.78125 295.777344 116.210938 C 289.09375 111.636719 289.859375 83.691406 287.859375 71.308594 Z M 276.558594 136.605469 "/>
<path style=" stroke:none;fill-rule:evenodd;fill:rgb(99.609375%,99.609375%,99.609375%);fill-opacity:1;" d="M 526.203125 256.90625 C 534.117188 256.511719 536.875 259.445313 541.960938 261.851563 C 546.484375 259.867188 545.585938 259.886719 549.371094 257.203125 C 552.433594 239.828125 537.191406 227.433594 524.886719 223.671875 Z M 526.203125 256.90625 "/>
<path style=" stroke:none;fill-rule:evenodd;fill:rgb(99.609375%,99.609375%,99.609375%);fill-opacity:1;" d="M 295.609375 315.152344 L 319.574219 316.074219 C 321.488281 311.933594 322.3125 310.363281 321.449219 306.921875 L 308.203125 306.269531 L 311.988281 269.570313 L 300.511719 270.636719 Z M 295.609375 315.152344 "/>
<path style=" stroke:none;fill-rule:evenodd;fill:rgb(88.28125%,9.812927%,13.330078%);fill-opacity:1;" d="M 284.832031 244.304688 C 297.71875 246.253906 305.707031 240.796875 305.792969 228.183594 C 305.882813 215.816406 298.644531 210.175781 286.394531 211.265625 C 283.78125 219.21875 283.808594 235.011719 284.832031 244.304688 Z M 284.832031 244.304688 "/>
<path style=" stroke:none;fill-rule:evenodd;fill:rgb(99.609375%,99.609375%,99.609375%);fill-opacity:1;" d="M 194.148438 153.441406 C 197.097656 151.796875 199.328125 152.640625 200.167969 150.074219 C 201.394531 146.339844 198.28125 147.238281 196.941406 146.105469 L 195.859375 145.101563 C 195.746094 144.992188 195.554688 144.695313 195.445313 144.589844 C 192.402344 141.652344 188.894531 141.929688 183.695313 142.652344 C 179.148438 143.285156 172.566406 145.484375 170.0625 147.972656 C 166.722656 151.285156 169.195313 149.429688 167.875 152.429688 C 167.675781 152.878906 157.0625 164.257813 181.277344 164.246094 C 189.648438 164.242188 191.332031 161.195313 197.609375 159.070313 C 196.855469 156.09375 197.230469 157.726563 195.914063 155.59375 C 195.914063 155.59375 194.179688 153.480469 194.148438 153.441406 Z M 194.148438 153.441406 "/>
<path style=" stroke:none;fill-rule:evenodd;fill:rgb(99.609375%,99.609375%,99.609375%);fill-opacity:1;" d="M 48.171875 265.246094 C 52.523438 264.59375 55.554688 261.371094 60.410156 259.398438 C 65.632813 257.273438 68.78125 257.285156 74.421875 256.046875 L 75.257813 230.265625 C 63.097656 234.253906 46.949219 248.128906 48.171875 265.246094 Z M 48.171875 265.246094 "/>
<path style=" stroke:none;fill-rule:evenodd;fill:rgb(99.609375%,99.609375%,99.609375%);fill-opacity:1;" d="M 219.011719 94.089844 L 219.214844 89.371094 L 226.355469 88.710938 C 226.792969 94.878906 223.8125 94.84375 219.011719 94.089844 Z M 214.0625 78.03125 C 199.863281 81.980469 205.433594 109.285156 223.988281 103.113281 C 239.132813 98.078125 233.011719 72.757813 214.0625 78.03125 Z M 214.0625 78.03125 "/>
<path style=" stroke:none;fill-rule:evenodd;fill:rgb(99.609375%,99.609375%,99.609375%);fill-opacity:1;" d="M 251.320313 92.449219 C 251.28125 87.578125 250.226563 88.371094 253.492188 86.753906 C 256.019531 85.503906 257.574219 86.753906 258.972656 87.40625 C 258.523438 93.015625 257.195313 92.765625 251.320313 92.449219 Z M 242.082031 92.347656 C 244.316406 110.304688 270.367188 105.617188 269.011719 88.753906 C 268.449219 81.730469 261.074219 76.355469 253.140625 77.660156 C 246.535156 78.742188 241.136719 84.746094 242.082031 92.347656 Z M 242.082031 92.347656 "/>
<path style=" stroke:none;fill-rule:evenodd;fill:rgb(12.547302%,21.972656%,50.976563%);fill-opacity:1;" d="M 209.652344 115.820313 C 217.261719 124.398438 256.621094 114.421875 264.476563 111.710938 C 263.902344 127.117188 251.683594 136.539063 235.582031 136.414063 C 217.800781 136.28125 215.660156 129.910156 210.21875 117.710938 C 209.105469 119.164063 206.824219 114.730469 209.035156 123.664063 C 215.625 150.285156 272.367188 143.613281 268.125 109.21875 C 258.421875 108.664063 238.414063 114.808594 230.640625 114.8125 C 224.140625 114.816406 213.804688 113.921875 209.652344 115.820313 Z M 209.652344 115.820313 "/>
<path style=" stroke:none;fill-rule:evenodd;fill:rgb(12.547302%,21.972656%,50.976563%);fill-opacity:1;" d="M 435.546875 122.136719 L 485.957031 123.984375 C 479.664063 153.878906 441.835938 151.800781 435.546875 122.136719 Z M 432.113281 119.308594 C 432.492188 155.722656 470.777344 153.902344 482.292969 141.398438 C 486.875 136.421875 487.355469 126.882813 491.398438 122.515625 Z M 432.113281 119.308594 "/>
<path style=" stroke:none;fill-rule:evenodd;fill:rgb(12.547302%,21.972656%,50.976563%);fill-opacity:1;" d="M 122.820313 124.78125 C 139.902344 121.523438 152.023438 110.972656 171.539063 108.269531 C 170.003906 122.007813 163.664063 132.152344 152.179688 136.226563 C 146.316406 138.300781 137.976563 139.546875 132.394531 136.269531 C 124.789063 131.808594 130.964844 127.714844 119.789063 126.046875 C 133.625 156.984375 175.84375 137.988281 176.0625 103.6875 C 167.394531 104.003906 155.53125 108.828125 147.574219 111.820313 C 139.6875 114.785156 126.398438 117.929688 122.820313 124.78125 Z M 122.820313 124.78125 "/>
<path style=" stroke:none;fill-rule:evenodd;fill:rgb(99.609375%,99.609375%,99.609375%);fill-opacity:1;" d="M 278.0625 157.070313 C 276.722656 155.414063 277.460938 156.289063 275.886719 154.738281 C 269.328125 148.285156 268.972656 150.117188 262.871094 150.605469 C 255.628906 151.183594 247.542969 150.980469 240.152344 151.300781 C 234.148438 151.558594 223.371094 153.277344 218.433594 152.851563 C 213.511719 152.425781 202.175781 148.289063 202.652344 156.589844 C 207.183594 158.492188 243.964844 157.589844 251.640625 157.355469 Z M 278.0625 157.070313 "/>
<path style=" stroke:none;fill-rule:evenodd;fill:rgb(99.609375%,99.609375%,99.609375%);fill-opacity:1;" d="M 193.707031 83.824219 C 200.015625 80.984375 201.902344 77.425781 205.808594 72.441406 C 209.664063 67.519531 212.214844 65.371094 216.457031 60.640625 C 212.757813 56.695313 205.085938 51.886719 199.761719 49.171875 C 194.921875 62.199219 192.625 67.605469 193.707031 83.824219 Z M 193.707031 83.824219 "/>
<path style=" stroke:none;fill-rule:evenodd;fill:rgb(99.609375%,99.609375%,99.609375%);fill-opacity:1;" d="M 275.355469 144.664063 C 275.425781 144.738281 275.339844 144.9375 275.34375 144.96875 C 277.199219 162.980469 301.804688 155.21875 307.109375 154.058594 C 297.070313 131.949219 278.507813 139.519531 275.355469 144.664063 Z M 275.355469 144.664063 "/>
<path style=" stroke:none;fill-rule:evenodd;fill:rgb(99.609375%,99.609375%,99.609375%);fill-opacity:1;" d="M 435.042969 162.351563 C 428.988281 144.015625 398.636719 141.363281 401.425781 161.046875 Z M 435.042969 162.351563 "/>
<path style=" stroke:none;fill-rule:evenodd;fill:rgb(99.609375%,99.609375%,99.609375%);fill-opacity:1;" d="M 212.890625 74.113281 C 227.503906 72.046875 235.417969 77.222656 236.605469 90.351563 C 236.808594 90.054688 237.03125 89.203125 237.113281 89.394531 C 237.78125 90.992188 237.84375 79.078125 249.714844 74.523438 C 246.46875 71.394531 222.785156 62.921875 219.296875 62.144531 Z M 212.890625 74.113281 "/>
<path style=" stroke:none;fill-rule:evenodd;fill:rgb(12.547302%,21.972656%,50.976563%);fill-opacity:1;" d="M 318.105469 117.226563 C 319.15625 135.429688 334.253906 146.980469 355.335938 142.960938 C 364.59375 141.191406 371.378906 136.554688 376.007813 131.445313 C 378.347656 128.859375 380.730469 125.699219 382.136719 121.527344 C 386.070313 109.886719 381.945313 111.382813 381.359375 111.109375 C 377.878906 112.644531 379.96875 109.589844 378.941406 115.753906 C 376.667969 129.371094 367.699219 137.296875 352.8125 139.199219 C 324.320313 142.847656 323.921875 121.054688 318.105469 117.226563 Z M 318.105469 117.226563 "/>
<path style=" stroke:none;fill-rule:evenodd;fill:rgb(99.609375%,99.609375%,99.609375%);fill-opacity:1;" d="M 100.894531 103.382813 C 79.804688 107.953125 90.246094 129.835938 103.042969 127.753906 Z M 100.894531 103.382813 "/>
<path style=" stroke:none;fill-rule:evenodd;fill:rgb(12.547302%,21.972656%,50.976563%);fill-opacity:1;" d="M 322.496094 113.351563 C 326.660156 119.761719 343.902344 117.382813 350.324219 116.675781 C 357.03125 115.933594 370.964844 113.9375 376.84375 112.632813 C 375.484375 110.914063 376 109.753906 370.3125 109.960938 C 368.429688 110.027344 365.632813 110.613281 364.011719 110.898438 C 359.394531 111.710938 355.085938 112.757813 350.488281 113.296875 C 342.8125 114.179688 327.300781 111.464844 322.496094 113.351563 Z M 322.496094 113.351563 "/>
<path style=" stroke:none;fill-rule:evenodd;fill:rgb(99.609375%,99.609375%,99.609375%);fill-opacity:1;" d="M 191.320313 423.339844 C 195.125 428.171875 199.035156 425.339844 205.910156 425.007813 C 211.5 424.738281 217.566406 424.777344 223.226563 424.632813 C 232.304688 424.394531 246.960938 424.425781 255.113281 422.503906 C 238 421.453125 206.800781 419.445313 191.320313 423.339844 Z M 191.320313 423.339844 "/>
<path style=" stroke:none;fill-rule:evenodd;fill:rgb(99.609375%,99.609375%,99.609375%);fill-opacity:1;" d="M 400.917969 117.144531 C 405.820313 115.046875 408.648438 112.390625 410.304688 106.464844 C 412.320313 99.253906 410.320313 95.996094 404.832031 94.734375 C 401.664063 100.476563 400.953125 109.867188 400.917969 117.144531 Z M 400.917969 117.144531 "/>
<path style=" stroke:none;fill-rule:evenodd;fill:rgb(99.609375%,99.609375%,99.609375%);fill-opacity:1;" d="M 182.804688 133.117188 C 185.054688 138.847656 188.277344 140.316406 196.046875 138.398438 C 196.382813 137.515625 196.582031 137.578125 196.699219 135.734375 L 195.457031 126.390625 C 194.816406 122.390625 193.488281 117.769531 193.058594 115.058594 C 190.757813 128.191406 191.851563 129.03125 186.910156 131.0625 Z M 182.804688 133.117188 "/>
<path style=" stroke:none;fill-rule:evenodd;fill:rgb(99.609375%,99.609375%,99.609375%);fill-opacity:1;" d="M 298.585938 48.257813 L 289.519531 46.28125 L 294.070313 58.726563 C 308.753906 44.945313 302.683594 53.492188 309.832031 47.878906 C 308.660156 45.65625 308.03125 44.289063 304.757813 44.296875 C 301.21875 44.300781 302.515625 44.839844 298.585938 48.257813 Z M 298.585938 48.257813 "/>
<path style=" stroke:none;fill-rule:evenodd;fill:rgb(12.547302%,21.972656%,50.976563%);fill-opacity:1;" d="M 128.449219 108.453125 C 136.402344 116.882813 153.800781 106.617188 159.410156 104.054688 L 158.78125 97.742188 C 150.128906 107.335938 145.726563 107.976563 128.449219 108.453125 Z M 128.449219 108.453125 "/>
<path style=" stroke:none;fill-rule:evenodd;fill:rgb(12.547302%,21.972656%,50.976563%);fill-opacity:1;" d="M 450.765625 112.304688 C 457.28125 110.378906 457.167969 106.777344 466.601563 108.660156 C 470.675781 113.660156 468.441406 115.671875 473.785156 116.824219 C 471.664063 106.265625 466.96875 100.992188 455.414063 105.902344 C 451.617188 107.515625 451.492188 107.773438 450.765625 112.304688 Z M 450.765625 112.304688 "/>
<path style=" stroke:none;fill-rule:evenodd;fill:rgb(88.28125%,9.812927%,13.330078%);fill-opacity:1;" d="M 404.191406 361.671875 L 413.738281 361.671875 L 408.949219 344.699219 C 405.6875 348.5625 404.761719 356.003906 404.191406 361.671875 Z M 404.191406 361.671875 "/>
<path style=" stroke:none;fill-rule:evenodd;fill:rgb(88.28125%,9.812927%,13.330078%);fill-opacity:1;" d="M 243.292969 290.503906 C 255.84375 291.628906 254.78125 275.058594 243.734375 278.394531 Z M 243.292969 290.503906 "/>
<path style=" stroke:none;fill-rule:evenodd;fill:rgb(12.547302%,21.972656%,50.976563%);fill-opacity:1;" d="M 336.46875 101.804688 C 341.375 111.53125 361.710938 110.160156 366.988281 102.234375 C 362.109375 100.347656 361.8125 105.570313 352.945313 105.914063 C 344.496094 106.242188 343.164063 103.617188 336.46875 101.804688 Z M 336.46875 101.804688 "/>
<path style=" stroke:none;fill-rule:evenodd;fill:rgb(12.547302%,21.972656%,50.976563%);fill-opacity:1;" d="M 432.859375 111.089844 C 436.300781 112.476563 434.597656 112.269531 438.671875 111.476563 C 439.554688 107.378906 439.996094 108.058594 438.375 104.402344 C 433.582031 102.988281 431.554688 106.1875 432.859375 111.089844 Z M 432.859375 111.089844 "/>
<path style=" stroke:none;fill-rule:evenodd;fill:rgb(12.547302%,21.972656%,50.976563%);fill-opacity:1;" d="M 226.988281 107.117188 C 230.894531 114.953125 243.746094 114.378906 246.023438 105.96875 C 237.484375 108.941406 242.460938 113.65625 226.988281 107.117188 Z M 226.988281 107.117188 "/>
<path style=" stroke:none;fill-rule:evenodd;fill:rgb(12.547302%,21.972656%,50.976563%);fill-opacity:1;" d="M 486.414063 115.992188 C 502.703125 116.324219 486.628906 98.710938 486.414063 115.992188 Z M 486.414063 115.992188 "/>
<path style=" stroke:none;fill-rule:evenodd;fill:rgb(88.28125%,9.812927%,13.330078%);fill-opacity:1;" d="M 347.621094 298.308594 C 347.472656 296.074219 347.261719 294.363281 346.742188 292.503906 C 346.320313 290.992188 346.40625 291.074219 345.796875 289.785156 C 345.066406 288.238281 344.710938 288.316406 343.925781 287.765625 L 341.320313 298.144531 Z M 347.621094 298.308594 "/>
<path style=" stroke:none;fill-rule:evenodd;fill:rgb(12.547302%,21.972656%,50.976563%);fill-opacity:1;" d="M 251.320313 92.449219 C 257.195313 92.765625 258.523438 93.015625 258.972656 87.40625 C 257.574219 86.753906 256.019531 85.503906 253.492188 86.753906 C 250.226563 88.371094 251.28125 87.578125 251.320313 92.449219 Z M 251.320313 92.449219 "/>
<path style=" stroke:none;fill-rule:evenodd;fill:rgb(12.547302%,21.972656%,50.976563%);fill-opacity:1;" d="M 375.121094 95.753906 L 374.425781 100.515625 C 379.8125 101.28125 382.21875 100.921875 381.78125 95.632813 C 377.742188 94.0625 378.867188 94.050781 375.121094 95.753906 Z M 375.121094 95.753906 "/>
<path style=" stroke:none;fill-rule:evenodd;fill:rgb(12.547302%,21.972656%,50.976563%);fill-opacity:1;" d="M 322.753906 95.515625 C 321.933594 98.339844 321.273438 100.546875 325.542969 100.480469 C 329.359375 100.421875 329.464844 98.757813 329.40625 94.984375 C 324.429688 93.988281 327.113281 93.515625 322.753906 95.515625 Z M 322.753906 95.515625 "/>
<path style=" stroke:none;fill-rule:evenodd;fill:rgb(12.547302%,21.972656%,50.976563%);fill-opacity:1;" d="M 219.011719 94.089844 C 223.8125 94.84375 226.792969 94.878906 226.355469 88.710938 L 219.214844 89.371094 Z M 219.011719 94.089844 "/>
<path style=" stroke:none;fill-rule:evenodd;fill:rgb(12.547302%,21.972656%,50.976563%);fill-opacity:1;" d="M 115.160156 110.878906 C 119.984375 114.953125 125.882813 110.636719 121.890625 107.101563 C 118.410156 105.699219 116.921875 107.3125 115.160156 110.878906 Z M 115.160156 110.878906 "/>
<path style=" stroke:none;fill-rule:evenodd;fill:rgb(75.78125%,80.46875%,94.921875%);fill-opacity:1;" d="M 279.648438 422.3125 C 282.058594 424.046875 283.328125 424.78125 287.511719 424.945313 C 288.75 424.992188 291.179688 424.898438 292.324219 424.46875 C 297.300781 422.613281 292.757813 425.796875 293.648438 422.675781 Z M 279.648438 422.3125 "/>
<path style=" stroke:none;fill-rule:evenodd;fill:rgb(12.547302%,21.972656%,50.976563%);fill-opacity:1;" d="M 166.351563 98.527344 C 167.265625 99.203125 165.246094 100.046875 168.984375 99.878906 C 171.515625 99.769531 170.570313 99.507813 171.839844 98.714844 C 172.792969 93.097656 166.972656 92.765625 166.351563 98.527344 Z M 166.351563 98.527344 "/>
</g>
</svg>
